<?xml version="1.0" standalone="no"?><svg xmlns="http://www.w3.org/2000/svg" viewBox="0 0 1440 320"><path fill="#8F94FBFF" fill-opacity="1" d="M0,32L17.1,64C34.3,96,69,160,103,202.7C137.1,245,171,267,206,256C240,245,274,203,309,197.3C342.9,192,377,224,411,240C445.7,256,480,256,514,240C548.6,224,583,192,617,170.7C651.4,149,686,139,720,165.3C754.3,192,789,256,823,245.3C857.1,235,891,149,926,144C960,139,994,213,1029,213.3C1062.9,213,1097,139,1131,128C1165.7,117,1200,171,1234,165.3C1268.6,160,1303,96,1337,90.7C1371.4,85,1406,139,1423,165.3L1440,192L1440,320L1422.9,320C1405.7,320,1371,320,1337,320C1302.9,320,1269,320,1234,320C1200,320,1166,320,1131,320C1097.1,320,1063,320,1029,320C994.3,320,960,320,926,320C891.4,320,857,320,823,320C788.6,320,754,320,720,320C685.7,320,651,320,617,320C582.9,320,549,320,514,320C480,320,446,320,411,320C377.1,320,343,320,309,320C274.3,320,240,320,206,320C171.4,320,137,320,103,320C68.6,320,34,320,17,320L0,320Z"></path></svg>